<svg width="18" height="18" viewBox="0 0 18 18" fill="none" xmlns="http://www.w3.org/2000/svg">
<circle cx="9" cy="9" r="9" fill="#243E97"/>
<path d="M12.0305 8.46297C12.0308 8.58443 11.9814 8.70213 11.8909 8.79565L8.85754 11.9145C8.75457 12.0207 8.60659 12.0874 8.44617 12.1001C8.28575 12.1128 8.12602 12.0703 8.00212 11.9821C7.87823 11.8939 7.80032 11.7671 7.78553 11.6296C7.77074 11.4922 7.82028 11.3553 7.92325 11.2492L10.6412 8.46297L8.02032 5.67679C7.96993 5.62362 7.9323 5.56244 7.90959 5.49677C7.88688 5.4311 7.87954 5.36223 7.888 5.29412C7.89645 5.22601 7.92054 5.16 7.95886 5.09989C7.99719 5.03978 8.049 4.98676 8.11133 4.94386C8.17371 4.89626 8.24689 4.8602 8.32629 4.83796C8.40568 4.81572 8.48959 4.80776 8.57274 4.81459C8.6559 4.82142 8.73651 4.8429 8.80953 4.87766C8.88254 4.91243 8.9464 4.95974 8.99708 5.01664L11.9273 8.13549C12.0035 8.2317 12.0398 8.347 12.0305 8.46297Z" fill="white"/>
</svg>
