<svg width="28" height="29" viewBox="0 0 28 29" fill="none" xmlns="http://www.w3.org/2000/svg">
<g clip-path="url(#clip0_66_1061)">
<path d="M26.7132 12.5532H25.9243C25.6709 11.8477 25.2687 11.1739 24.755 10.5918L25.137 9.91243C25.3127 9.59936 25.3599 9.24224 25.2661 8.93276C25.1666 8.60535 24.9333 8.31432 24.6436 8.15497L23.5407 7.52372C23.2385 7.35054 22.8866 7.30699 22.5497 7.40127C22.2164 7.49401 21.936 7.71023 21.7593 8.01253L21.3794 8.68938C21.1752 8.65198 20.9533 8.62482 20.7165 8.60945V7.30955C21.9542 6.49077 22.6901 5.14681 22.6901 3.6973C22.6901 2.24778 21.9365 0.869491 20.674 0.0676217L20.6594 0.0594236C20.4998 -0.0194824 20.3314 -0.0194824 20.1717 0.0594236C20.0116 0.138842 19.9115 0.301265 19.9115 0.483671V2.32003C19.9115 2.67613 19.7343 2.99124 19.4394 3.16135C18.7614 3.53692 17.9187 3.53692 17.2428 3.16289C16.95 2.99432 16.7686 2.67152 16.7686 2.32003V0.483671C16.7686 0.301265 16.6691 0.138842 16.5084 0.0594236C16.3488 -0.0194824 16.1803 -0.0194824 16.0207 0.0594236L16.0062 0.0676217C14.7436 0.870003 13.99 2.22678 13.99 3.6973C13.99 5.16782 14.7441 6.52971 15.9637 7.31109V21.6909C14.726 22.5097 13.99 23.8537 13.99 25.3032C13.99 26.7527 14.7436 28.1305 16.0062 28.9329L16.0207 28.9411C16.1005 28.9805 16.1824 29.0005 16.2643 29.0005C16.3462 29.0005 16.4286 28.981 16.5079 28.9411C16.668 28.8616 16.7681 28.6992 16.7681 28.5168V26.6805C16.7681 26.3244 16.9453 26.0092 17.2402 25.8391C17.9182 25.4636 18.7609 25.4636 19.4368 25.8376C19.7296 26.0062 19.911 26.329 19.911 26.6805V28.5168C19.911 28.6992 20.0105 28.8616 20.1712 28.9416C20.2619 28.9862 20.3459 28.9862 20.4148 28.9867C20.5107 28.9867 20.5926 28.9457 20.6589 28.9129L20.6729 28.9047C21.9355 28.1023 22.6891 26.7455 22.6891 25.275C22.6891 23.8045 21.935 22.4426 20.7154 21.6612V20.3905C20.9538 20.3721 21.2021 20.3377 21.4929 20.2829L21.8749 20.9885C22.0293 21.2636 22.3092 21.4727 22.6585 21.5762C22.7694 21.6125 22.9016 21.6125 22.998 21.6125H23.6568L23.4754 21.5229C23.5293 21.5014 23.5806 21.4768 23.6277 21.4491L24.7281 20.8194C25.0064 20.6667 25.2179 20.39 25.3236 20.0406C25.4179 19.7311 25.3708 19.374 25.1925 19.0573L24.7856 18.3789C25.264 17.8317 25.6553 17.1487 25.9243 16.3914H26.7126C27.0858 16.3914 27.416 16.2505 27.6425 15.9948C27.883 15.7228 28.0001 15.4271 28.0001 15.09V13.8275C28.0001 13.1138 27.4346 12.5548 26.7126 12.5548L26.7132 12.5532ZM25.2246 15.3943L25.1401 15.7699C24.9224 16.5738 24.4845 17.3337 23.875 17.9644L23.6153 18.2211L24.4026 19.5287L24.4067 19.5354C24.4389 19.5835 24.4622 19.6819 24.4435 19.7567C24.4192 19.8525 24.3782 19.9156 24.3212 19.9437L23.21 20.5796L23.2017 20.5847C23.153 20.6165 23.054 20.6401 22.9778 20.6211C22.8809 20.597 22.8171 20.5565 22.7886 20.5002L22.0003 19.1895L21.6256 19.272C21.3125 19.3494 21.0134 19.3991 20.7159 19.4226V17.0114C21.3908 16.8951 22.0127 16.517 22.4014 15.979C22.7917 15.4148 22.9311 14.7503 22.8036 14.057C22.6829 13.4007 22.2879 12.8099 21.7188 12.4343C21.4068 12.2361 21.0699 12.1054 20.7165 12.046V9.5635C20.9715 9.58194 21.2322 9.62652 21.5079 9.69928L21.8831 9.78177L22.6958 8.48392L22.7026 8.47162C22.7819 8.31483 22.9804 8.29536 23.1286 8.36607L24.2269 8.99476L24.2352 8.99937C24.3062 9.03421 24.3668 9.10953 24.386 9.18639C24.4026 9.25248 24.3886 9.32729 24.3414 9.42105L23.5878 10.724L23.8459 10.9792C24.4679 11.594 24.9152 12.3431 25.1401 13.1455L25.2246 13.5201H26.7717C26.948 13.5201 27.0806 13.6512 27.0806 13.8254V15.0879C27.0806 15.1561 27.0433 15.2335 26.9811 15.2949C26.9189 15.3564 26.8407 15.3933 26.7717 15.3933H25.2246V15.3943ZM21.8298 14.2277C21.9101 14.6529 21.8267 15.0705 21.5934 15.4036C21.3871 15.7002 21.0736 15.9185 20.7159 16.02V13.0318C20.8834 13.0753 21.0347 13.1435 21.1684 13.2357C21.524 13.4791 21.7531 13.8224 21.8298 14.2282V14.2277ZM19.911 24.9973C19.415 24.7216 18.8667 24.5761 18.3256 24.5761C17.813 24.5761 17.2734 24.7068 16.7209 24.964L16.7095 24.9701C16.1067 25.315 15.732 25.9595 15.732 26.6523V27.4096C15.2251 26.8055 14.94 26.0359 14.94 25.2463C14.94 24.0617 15.5983 22.9483 16.6582 22.3401C16.8157 22.2597 16.9137 22.0988 16.9137 21.9179V7.02569C16.9137 6.84431 16.8152 6.68291 16.6566 6.60298C15.5977 6.02349 14.94 4.91009 14.94 3.6973C14.94 2.89901 15.2251 2.13557 15.732 1.55146V2.31952C15.732 3.002 16.1155 3.66194 16.7095 4.00216C17.7124 4.57295 18.9403 4.57244 19.9126 4.00216C20.5154 3.65733 20.8901 3.01276 20.8901 2.32003V1.56274C21.397 2.16683 21.682 2.93642 21.682 3.72599C21.682 4.9106 21.0238 6.024 19.9639 6.63219C19.8063 6.71263 19.7084 6.87352 19.7084 7.05439V21.9456C19.7084 22.127 19.8068 22.2884 19.9654 22.3683C21.0243 22.9478 21.682 24.0612 21.682 25.274C21.682 26.0636 21.397 26.8331 20.8901 27.4372V26.6799C20.8901 25.998 20.5065 25.3375 19.911 24.9968V24.9973Z" fill="#243E97"/>
<path d="M14.4355 13.2993H11.1267C10.6908 13.2993 10.2643 13.1303 9.92581 12.8233L8.88299 11.8785C8.79384 11.7919 8.66531 11.7463 8.53003 11.754C8.39735 11.7612 8.27606 11.8201 8.19521 11.9159C8.10969 12.004 8.06512 12.1296 8.07289 12.2613C8.08015 12.3935 8.14079 12.5144 8.23875 12.5938L9.27845 13.5361C9.79209 14.0141 10.441 14.2667 11.1542 14.2667L14.4355 14.2954C14.7087 14.2954 14.9393 14.0674 14.9393 13.7974C14.9393 13.5273 14.7087 13.2993 14.4355 13.2993Z" fill="#243E97"/>
<path d="M4.51342 15.7356L3.68726 15.5686V19.3453H9.04749V18.1008C9.04749 17.1032 8.32084 16.267 7.31949 16.1127L4.5129 15.7356H4.51342ZM8.06894 18.1013V18.3493H4.59324L4.62537 16.7327L7.18525 17.0765C7.68074 17.1498 8.06894 17.6002 8.06894 18.1008V18.1013Z" fill="#243E97"/>
<path d="M14.9664 21.4833L14.9684 21.4577C14.9684 21.1877 14.7378 20.9597 14.4647 20.9597H4.24797C3.97483 20.9597 3.74418 21.1877 3.74418 21.4577C3.74418 21.7277 3.97483 21.9557 4.24797 21.9557H5.81582C5.69506 22.7648 4.97151 23.3986 4.13187 23.3986C3.2093 23.3986 2.42978 22.628 2.42978 21.7159V14.3705C2.42978 14.2025 2.34478 14.0493 2.20069 13.956L1.11175 12.775L1.06666 12.7304L1.0537 12.7217C1.02675 12.7038 1.00705 12.6489 1.00705 12.5915V11.1856C1.00705 11.0954 1.08635 10.995 1.19986 10.995H3.92818C4.11269 10.995 4.27699 10.8966 4.35629 10.7403L6.69952 6.30725C7.09498 5.83996 7.65992 5.57199 8.25286 5.57199H13.129C13.4161 5.57199 13.6328 5.35781 13.6328 5.07396C13.6328 4.7901 13.4021 4.57593 13.129 4.57593H8.25286C7.32251 4.57593 6.44037 5.00632 5.89356 5.72775L5.86247 5.76874V5.77745C5.85417 5.79077 5.84588 5.80717 5.84018 5.82664L3.63068 9.99892H1.20038C0.538511 9.99892 0 10.5313 0 11.1856V12.5915C0 12.9138 0.125428 13.2084 0.362808 13.4441L1.42221 14.5683V21.7159C1.42221 23.1772 2.62466 24.366 4.10285 24.366C5.47996 24.366 6.64717 23.3181 6.8208 21.9557H14.4647C14.7285 21.9557 14.927 21.7154 14.9664 21.4833Z" fill="#243E97"/>
<path d="M14.3195 18.3486H12.6071C12.3199 18.3486 12.1033 18.5628 12.1033 18.8467C12.1033 19.1305 12.3339 19.3447 12.6071 19.3447H14.3195C14.5927 19.3447 14.8233 19.1167 14.8233 18.8467C14.8233 18.5766 14.5927 18.3486 14.3195 18.3486Z" fill="#243E97"/>
<path d="M14.5808 9.99951H6.39588C6.10874 9.99951 5.89209 10.2137 5.89209 10.4975C5.89209 10.7814 6.12273 10.9956 6.39588 10.9956H14.5808C14.854 10.9956 15.0846 10.7676 15.0846 10.4975C15.0846 10.2275 14.854 9.99951 14.5808 9.99951Z" fill="#243E97"/>
</g>
<defs>
<clipPath id="clip0_66_1061">
<rect width="28" height="29" fill="white"/>
</clipPath>
</defs>
</svg>
