<svg width="27" height="27" viewBox="0 0 27 27" fill="none" xmlns="http://www.w3.org/2000/svg">
<path d="M26.5557 16.11L14.4421 3.85199C13.9888 3.39299 13.1623 3.05999 12.4602 3.05999L9.16296 3.17699C8.86967 2.66399 8.54084 2.23199 8.17645 1.86299C7.16329 0.827985 5.8835 0.179985 4.58594 0.035985C3.22616 -0.126015 1.99969 0.278985 1.12873 1.15199C-0.622096 2.92499 -0.311037 6.12899 1.83083 8.28899C1.90193 8.36099 1.96414 8.42399 2.03524 8.48699C2.15967 8.60399 2.31075 8.65799 2.47962 8.64898C2.64848 8.64898 2.79956 8.56799 2.9151 8.44199C3.14617 8.18999 3.1284 7.78499 2.87955 7.55099C2.82623 7.49699 2.76401 7.44299 2.71069 7.38899C1.05763 5.73299 0.746567 3.32999 2.00858 2.04298C2.60404 1.43999 3.46612 1.16999 4.43485 1.28699C5.4569 1.40399 6.47896 1.92598 7.2966 2.75399C8.94966 4.42799 9.26072 6.83099 7.99871 8.10899C7.84762 8.26199 7.66098 8.39699 7.4388 8.52299C7.50101 8.02799 7.78541 7.57799 8.22089 7.32599C8.51418 7.14599 8.61194 6.75899 8.44308 6.46199C8.3542 6.31799 8.22089 6.20999 8.06092 6.17399C7.90094 6.12899 7.73208 6.15599 7.58988 6.24599C6.71003 6.77699 6.18567 7.69499 6.18567 8.72099C6.18567 10.305 7.46546 11.601 9.02965 11.601C10.5938 11.601 11.8736 10.305 11.8736 8.72099C11.8736 7.50599 11.1271 6.43499 9.99838 6.02999C9.99838 5.49899 9.90062 4.96799 9.73175 4.42799L12.5313 4.32899C12.8512 4.30199 13.3489 4.52699 13.5711 4.75199L25.6847 17.019C25.738 17.073 25.7647 17.136 25.7647 17.208C25.7647 17.28 25.738 17.352 25.6847 17.397L17.5171 25.668C17.4105 25.776 17.2416 25.776 17.1439 25.668L5.02142 13.392C4.79923 13.167 4.59482 12.645 4.60371 12.321L4.85256 4.89599C4.86145 4.72499 5.00364 4.58099 5.17251 4.57199L6.75447 4.52699C7.09219 4.51799 7.3677 4.22099 7.34993 3.87899C7.34104 3.54599 7.05664 3.26699 6.71003 3.26699L5.12807 3.31199C4.30154 3.34799 3.65276 4.01399 3.60832 4.85099L3.35947 12.285C3.33281 12.942 3.67942 13.824 4.14156 14.283L16.2551 26.55C16.5395 26.838 16.9217 27 17.3216 27C17.7215 27 18.1037 26.838 18.3881 26.55L26.5557 18.279C26.84 17.991 27 17.604 27 17.199C27 16.794 26.84 16.407 26.5557 16.119V16.11ZM9.02076 10.323C8.54973 10.323 8.10536 10.116 7.80318 9.74699C8.20312 9.55799 8.5675 9.30599 8.87856 8.99098C9.32293 8.54099 9.64288 7.97399 9.82063 7.30799C10.3094 7.59599 10.6205 8.11799 10.6205 8.70299C10.6205 9.59399 9.90062 10.323 9.02076 10.323Z" fill="#243E97"/>
</svg>
