<svg width="22" height="21" viewBox="0 0 22 21" fill="none" xmlns="http://www.w3.org/2000/svg">
<path d="M2.99998 6.00008H1.99998M20 6.00008H19M11 1.00008V3.00008M9.49998 3.00008H12.5M4.99998 13.0001H7.99998M14 13.0001H17M14.51 0.830078H7.48998C4.99998 0.830078 4.44998 2.07008 4.12998 3.59008L2.99998 9.00008H19L17.87 3.59008C17.55 2.07008 17 0.830078 14.51 0.830078V0.830078ZM20.99 17.8201C21.1 18.9901 20.16 20.0001 18.96 20.0001H17.08C16 20.0001 15.85 19.5401 15.66 18.9701L15.46 18.3701C15.18 17.5501 15 17.0001 13.56 17.0001H8.43998C6.99998 17.0001 6.78998 17.6201 6.53998 18.3701L6.33998 18.9701C6.14998 19.5401 5.99998 20.0001 4.91998 20.0001H3.03998C1.83998 20.0001 0.899981 18.9901 1.00998 17.8201L1.56998 11.7301C1.70998 10.2301 1.99998 9.00008 4.61998 9.00008H17.38C20 9.00008 20.29 10.2301 20.43 11.7301L20.99 17.8201Z" stroke="#243E97" stroke-width="1.5" stroke-linecap="round" stroke-linejoin="round"/>
</svg>
